<svg width="37" height="38" xmlns="https://www.w3.org/2000/svg" xmlns:xlink="https://www.w3.org/1999/xlink" xml:space="preserve" overflow="hidden"><defs><clipPath id="clip0"><rect x="-41" y="195" width="37" height="38"/></clipPath></defs><g clip-path="url(#clip0)" transform="translate(41 -195)"><path d="M-41 195-4 195-4 233-41 233Z" fill="#FFFFFF" fill-opacity="0.0117647"/><path d="M-9.86501 195.002-8.627 195.001-7.416 195.001-6.701 195.001-5.909 195.002-5.675 195.001C-5.229 195.003-4.79201 195.026-4.35001 195.081L-4 195.361-4 195.99-4.151 196.153-4.354 196.374-4.461 196.491C-4.646 196.692-4.828 196.895-5.005 197.103-5.263 197.401-5.54401 197.677-5.826 197.952-6.02499 198.148-6.214 198.347-6.396 198.559-6.701 198.912-7.033 199.238-7.364 199.567L-7.55099 199.753-8.17 200.366C-8.312 200.507-8.44 200.646-8.56599 200.803-8.701 200.968-8.683 200.924-9.005 201.24L-12.63 204.686C-12.892 204.897-13.133 205.114-13.368 205.355-13.659 205.653-13.966 205.914-14.291 206.173-14.491 206.337-14.681 206.508-14.871 206.683-15.183 206.97-15.506 207.24-15.837 207.506-16.021 207.658-16.198 207.815-16.374 207.976-16.881 208.437-17.415 208.861-17.957 209.279-18.144 209.426-18.325 209.579-18.506 209.732-18.993 210.142-19.501 210.524-20.008 210.909L-20.382 211.197C-20.967 211.652-21.565 212.086-22.167 212.516L-22.567 212.805C-23.64 213.578-24.738 214.315-25.851 215.03L-26.183 215.244C-27.02 215.786-27.877 216.288-28.743 216.783-29.082 216.977-29.418 217.175-29.752 217.377L-29.877 217.451-30.426 217.783C-30.851 218.036-31.283 218.264-31.727 218.482-32.029 218.631-32.329 218.786-32.626 218.946-37.268 221.439-37.268 221.439-39.61 221.962-39.905 222.006-40.195 222.007-40.492 221.99L-40.912 221.64C-40.966 221.13-40.992 220.629-40.992 220.116-40.992 220.046-40.992 219.975-40.992 219.901-40.993 219.669-40.994 219.437-40.994 219.205-40.994 219.043-40.994 218.881-40.994 218.718-40.994 218.379-40.995 218.04-40.994 217.7-40.994 217.266-40.996 216.831-40.997 216.397-40.998 216.063-40.998 215.728-40.998 215.393-40.998 215.232-40.998 215.072-40.999 214.912-40.999 214.689-40.999 214.465-40.999 214.241-40.999 214.176-40.999 214.109-41 214.041-40.999 213.767-40.985 213.545-40.911 213.278-40.888 213.224-40.865 213.169-40.842 213.113-40.667 212.934-40.484 212.773-40.283 212.624-39.988 212.465-39.681 212.337-39.374 212.205-36.732 211.012-34.268 209.454-31.894 207.801L-31.703 207.669C-31.251 207.354-30.804 207.035-30.357 206.714L-29.901 206.388C-29.38 206.016-28.867 205.642-28.377 205.231-28.158 205.05-27.935 204.874-27.712 204.699L-27.587 204.602-26.962 204.114C-26.443 203.709-25.935 203.293-25.435 202.865L-25.088 202.572C-24.738 202.278-24.392 201.984-24.055 201.677-23.819 201.462-23.578 201.257-23.33 201.057-22.957 200.754-22.6 200.437-22.246 200.113L-21.853 199.755-21.658 199.577C-21.507 199.44-21.353 199.307-21.198 199.174-20.93 198.942-20.682 198.691-20.433 198.439-20.208 198.212-19.975 198.001-19.732 197.793-19.439 197.532-19.167 197.248-18.891 196.968L-18.715 196.793C-18.603 196.68-18.491 196.568-18.381 196.454-17.923 195.985-17.453 195.509-16.881 195.18-16.709 195.109-16.562 195.078-16.375 195.057-16.099 195.043-15.823 195.037-15.547 195.033L-15.211 195.026C-13.429 194.992-11.647 195.001-9.86501 195.002Z" fill="#262626" fill-rule="evenodd"/><path d="M-18.687 215.006-18.503 215C-18.304 215.023-18.304 215.023-18.071 215.103-17.939 215.168-17.833 215.236-17.719 215.332-17.607 215.444-17.499 215.559-17.393 215.677L-17.276 215.804C-17.001 216.104-16.736 216.412-16.482 216.732L-15.288 218.169C-15.004 218.493-14.737 218.829-14.475 219.173-14.317 219.374-14.153 219.566-13.986 219.758-13.708 220.076-13.448 220.404-13.191 220.741-12.948 221.051-12.69 221.346-12.434 221.645-12.175 221.949-11.926 222.26-11.683 222.579-11.403 222.943-11.105 223.283-10.801 223.624-10.526 223.934-10.269 224.256-10.017 224.589-9.86099 224.788-9.698 224.979-9.533 225.169-9.257 225.485-8.99699 225.813-8.742 226.148-8.53 226.418-8.30499 226.673-8.07899 226.931-7.91901 227.12-7.76801 227.312-7.618 227.509-7.39 227.808-7.14999 228.092-6.901 228.373-6.59801 228.715-6.312 229.068-6.033 229.433-5.89301 229.614-5.74699 229.788-5.59801 229.961-4.30701 231.462-4.30701 231.462-4 232.111L-4.067 232.751-4.405 232.965-8.50999 232.979-10.416 232.986-12.078 232.991-12.957 232.995-13.786 232.997-14.089 232.998C-14.473 233.003-14.847 233.006-15.221 232.904-15.478 232.808-15.705 232.703-15.937 232.551L-16.082 232.42-16.249 232.269C-16.53 231.999-16.801 231.72-17.068 231.434L-17.232 231.26C-17.52 230.955-17.797 230.643-18.063 230.317-18.215 230.131-18.373 229.951-18.531 229.77-18.94 229.301-19.347 228.831-19.741 228.35-19.989 228.05-20.246 227.759-20.502 227.467-20.724 227.215-20.94 226.96-21.153 226.701-21.303 226.52-21.456 226.343-21.61 226.166-21.801 225.945-21.864 225.86-22.174 225.498L-23.47 223.995C-23.835 223.564-24.049 223.262-24.363 222.913-24.573 222.678-24.757 222.451-24.895 222.161-24.924 222.084-24.953 222.008-24.983 221.93-25.005 221.618-25.007 221.315-24.983 221.004-24.87 220.538-24.642 220.13-24.412 219.72-24.108 219.195-23.769 218.741-23.364 218.298-23.281 218.2-23.2 218.1-23.119 218-22.34 217.061-21.389 216.302-20.389 215.641-20.006 215.408-19.6 215.189-19.177 215.048-19.013 215.017-18.855 215.008-18.687 215.006Z" fill="#262626" fill-rule="evenodd"/><path d="M-37.183 195.006-36.694 195.005-35.674 195.005-34.371 195.003-33.363 195.002-32.882 195.001-32.211 195.001-32.013 195C-31.657 195.001-31.329 195.034-30.981 195.112-30.847 195.153-30.847 195.153-30.616 195.276-30.428 195.423-30.289 195.573-30.148 195.762-30.043 196.106-29.999 196.419-30 196.778-30.004 197.043-30.012 197.308-30.022 197.573-30.023 197.629-30.025 197.685-30.027 197.743-30.055 198.605-30.114 199.45-30.288 200.298-30.297 200.346-30.306 200.394-30.316 200.445-30.528 201.535-30.946 202.571-31.476 203.552-31.75 204.044-32.044 204.517-32.385 204.97L-32.543 205.184C-33.231 206.087-34.065 206.912-34.984 207.593-36.272 208.512-37.67 209.286-39.164 209.844-40.14 210.186-40.755 209.896-40.841 209.641-40.927 209.386-40.98 209.177-40.998 208.908-40.999 208.812-40.999 208.718-40.998 208.622-40.999 208.569-40.999 208.517-40.999 208.462-41 208.286-40.999 208.11-40.999 207.934-40.999 207.807-40.999 207.68-41 207.553-41 207.21-41 206.867-41 206.523-40.999 206.164-41 205.804-41 205.444-41 204.84-41 204.236-40.999 203.633-40.998 202.935-40.998 202.237-40.999 201.539-41 200.939-41 200.34-41 199.74L-41 198.666C-41 198.329-41 197.993-40.999 197.657L-40.999 197.286C-41 197.118-40.999 196.949-40.998 196.781-40.999 196.732-40.999 196.684-41 196.634-40.998 196.399-40.975 196.189-40.91 195.965-40.887 195.898-40.864 195.831-40.841 195.762L-40.422 195.288C-40.255 195.198-40.115 195.137-39.932 195.085-39.025 194.973-38.096 195.006-37.183 195.006Z" fill="#C55A11" fill-rule="evenodd"/><path d="M-23.028 215C-22.832 215.021-23.708 215.611-23.922 215.815-24.054 215.949-24.184 216.086-24.315 216.223-24.45 216.363-24.582 216.489-24.733 216.611-24.891 216.743-25.003 216.866-25.116 217.037L-25.539 217.472-25.712 217.639C-26.079 218.001-26.398 218.388-26.717 218.794L-27.034 219.184C-27.086 219.248-27.139 219.313-27.192 219.38L-27.477 219.729C-27.854 220.194-28.194 220.682-28.534 221.174-28.694 221.406-28.859 221.633-29.027 221.858-29.326 222.272-29.581 222.708-29.837 223.15-29.917 223.287-29.998 223.423-30.081 223.558-31.491 225.897-32.574 228.498-33.295 231.136-33.411 231.558-33.544 231.963-33.746 232.352-33.902 232.567-33.902 232.567-34.024 232.703-34.187 232.787-34.337 232.857-34.511 232.914-34.737 232.946-34.962 232.948-35.19 232.95L-35.388 232.954-36.02 232.962-36.455 232.969-37.52 232.982-38.043 232.989-38.847 232.997-39.075 233C-39.501 233.001-39.875 232.953-40.287 232.844L-40.774 232.423C-40.862 232.227-40.916 232.054-40.952 231.843-40.982 231.589-40.992 231.344-40.993 231.088-40.993 231.042-40.993 230.996-40.993 230.948-40.994 230.796-40.995 230.645-40.995 230.493-40.995 230.387-40.995 230.28-40.995 230.174-40.995 229.951-40.996 229.728-40.995 229.506-40.995 229.222-40.997 228.938-40.998 228.654-40.999 228.434-40.999 228.215-40.999 227.995-40.999 227.891-40.999 227.786-41 227.681-41.002 227.137-40.991 226.627-40.844 226.1-40.387 225.54-39.89 225.118-39.313 224.695L-39.121 224.553-38.753 224.282-38.29 223.94C-37.883 223.637-37.476 223.336-37.052 223.057-36.863 222.929-36.678 222.796-36.494 222.662-35.489 221.938-34.455 221.258-33.4 220.612-33.152 220.456-32.909 220.293-32.667 220.128-31.999 219.675-31.316 219.254-30.617 218.852-30.446 218.748-30.283 218.64-30.118 218.527-29.745 218.274-29.354 218.055-28.961 217.836L-28.496 217.575-28.263 217.445C-27.936 217.256-28.154 217.287-27.282 216.879-25.151 215.858-23.588 215.177-23.028 215Z" fill="#C55A11" fill-rule="evenodd"/></g></svg>